<?xml version="1.0" encoding="UTF-8"?>
<!DOCTYPE svg PUBLIC "-//W3C//DTD SVG 1.1//EN" "http://www.w3.org/Graphics/SVG/1.1/DTD/svg11.dtd">
<svg version="1.1" xmlns="http://www.w3.org/2000/svg" xmlns:xlink="http://www.w3.org/1999/xlink" x="0px" y="0px"
	 preserveAspectRatio="xMidYMid meet" width="350px" height="84px" viewBox="0 0 383 92" enable-background="new 0 0 383 92" xml:space="preserve">

    
    <g id="wEKLeO_1_">
    </g>
    <g id="group">
        <path id="bezier" stroke="none" fill="rgb(74, 177, 154)" d="M 86.29,31.47 C 86.29,27.62 85.7,23.48 84.36,19.78 83.17,16.37 81.24,13.12 78.86,10.3 73.36,4.24 64.45,0.39 56.12,0.39 42.15,0.24 27.88,6.75 16.88,15.34 12.72,18.59 8.86,22.44 6.18,27.03 4.4,29.84 3.21,33.09 3.21,36.5 3.21,39.61 3.8,43.01 5.59,45.67 7.22,48.48 9.9,51 12.87,52.63 16.88,54.85 21.49,56.03 26.1,56.62 32.79,57.66 39.77,57.36 46.46,56.33 50.18,55.74 53.74,55.14 57.16,53.81 59.54,52.78 62.36,51.59 63.4,49.37 63.55,49.08 63.55,48.63 63.4,48.34 63.11,48.04 62.66,48.04 62.36,47.89 61.03,47.74 59.54,47.6 58.2,47.74 55.97,48.19 53.89,49.08 51.81,49.52 47.5,50.41 43.19,51 38.73,51.3 33.98,51.44 29.07,51.3 24.17,50.26 21.34,49.82 18.37,48.93 15.69,47.3 13.76,46.12 11.83,44.64 10.64,42.56 9.6,40.79 9.16,38.57 9.16,36.5 9.16,33.39 10.79,30.43 12.57,27.91 15.1,24.36 18.52,21.26 21.94,18.59 31.75,11.34 43.93,5.87 56.12,5.72 62.96,5.72 70.39,8.68 75.15,13.71 79.31,18.44 81.39,25.25 81.39,31.47 81.39,38.27 79.16,45.08 76.19,51 70.39,62.69 61.03,73.49 49.43,79.41 43.49,82.52 36.5,84.29 29.67,84.44 22.98,84.44 15.99,82.52 10.05,79.12 6.63,77.19 3.21,73.64 3.06,69.79 3.06,68.9 3.36,68.02 3.66,67.28 3.95,66.68 4.25,66.09 4.7,65.5 L 5.14,64.61 C 5.44,64.02 6.18,63.13 5.59,62.99 5.29,62.69 4.84,62.84 4.4,62.99 3.66,63.28 3.06,63.58 2.47,64.17 0.98,65.35 0.09,67.72 0.09,69.79 0.09,71.42 0.53,73.2 1.28,74.82 2.62,77.34 4.99,79.56 7.37,81.19 13.76,85.63 21.94,87.85 29.67,87.99 37.54,87.99 45.72,85.92 52.56,82.22 65.19,75.42 75.3,63.58 81.39,50.7 84.21,44.78 86.14,38.13 86.29,31.47 Z M 86.29,31.47" />
        <path id="bezier2" stroke="none" fill="rgb(74, 177, 154)" d="M 102.2,3.94 C 102.05,3.5 101.75,3.35 101.3,3.2 100.86,3.2 100.56,3.05 100.12,3.05 99.37,3.05 98.63,2.91 98.18,3.35 97.44,4.09 97.44,5.27 97.29,6.31 97,7.94 96.85,9.71 96.7,11.49 96.1,16.67 95.36,22 95.21,27.17 95.36,27.77 96.25,27.77 96.7,27.77 97,27.77 97.29,27.77 97.44,27.62 97.44,27.47 97.44,27.17 97.44,27.03 L 97.89,25.55 98.78,21.4 C 99.82,17.41 100.56,13.26 101.31,9.27 101.6,8.08 101.75,6.9 101.9,5.87 102.05,5.13 102.35,4.53 102.2,3.94 Z M 102.2,3.94" />
        <path id="bezier3" stroke="none" fill="rgb(74, 177, 154)" d="M 155.41,79.86 C 155.55,79.56 155.7,78.67 155.26,78.67 154.81,78.52 154.36,79.12 153.92,79.41 153.03,80 152.28,80.89 151.54,81.78 149.91,83.55 147.23,84.89 144.85,84.89 142.92,84.89 140.84,84 139.8,82.37 138.17,79.86 138.02,76.6 138.02,73.64 138.17,70.68 138.61,67.87 138.46,64.91 138.46,62.84 138.17,60.32 136.53,58.99 135.79,58.4 134.45,58.4 133.71,58.99 132.22,60.03 131.63,61.95 130.88,63.58 129.1,67.43 127.76,71.27 126.27,75.12 125.68,76.6 125.09,77.93 124.34,79.41 124.05,80 123.75,80.6 123.45,81.19 L 123.15,81.63 C 123.15,81.48 123.15,81.34 123,81.19 122.86,80.15 122.86,78.97 122.86,77.93 123,74.97 123.45,72.16 123.3,69.2 123.3,66.24 122.86,62.99 120.92,60.77 120.33,60.03 118.69,59.88 117.8,60.32 116.17,61.36 115.42,63.28 114.38,64.91 112.15,69.2 110.37,73.79 108.44,78.38 107.99,79.41 107.55,80.3 107.1,81.34 106.66,81.93 106.36,82.52 105.91,82.96 105.76,83.11 105.76,83.11 105.61,83.26 105.32,82.07 105.47,80.59 105.47,79.26 105.61,75.56 106.06,71.72 106.06,68.02 106.21,65.65 105.76,63.28 104.72,61.36 103.98,60.32 102.94,59.43 101.6,59.43 100.56,59.43 100.86,60.47 100.56,61.51 102.05,63.43 102.2,63.73 102.2,63.73 102.64,65.06 102.79,66.54 102.79,68.02 102.64,72.16 101.9,76.3 101.9,80.45 101.9,82.22 101.9,84 102.49,85.63 102.94,86.51 103.83,87.4 104.72,87.55 106.21,87.7 107.69,86.51 108.73,85.48 110.07,83.85 111.11,81.78 112,79.86 113.49,76.3 114.98,72.6 116.76,69.2 117.36,67.72 118.1,66.39 118.84,65.06 119.29,66.39 119.44,67.87 119.44,69.35 119.44,73.05 118.84,76.75 119.14,80.45 119.29,82.07 119.44,83.7 120.33,84.89 120.92,85.63 121.96,86.22 122.85,86.22 124.49,86.22 125.83,84.44 126.72,83.11 127.91,81.04 128.8,78.67 129.69,76.45 131.03,73.05 132.07,69.5 133.41,66.09 133.85,65.06 134.3,64.02 134.89,62.98 L 135.04,62.69 C 135.04,62.84 135.04,62.98 135.19,63.13 135.34,64.17 135.34,65.06 135.34,66.09 135.34,68.61 135.04,71.12 135.19,73.64 135.19,77.34 135.64,81.33 137.87,84.29 139.5,86.37 142.32,87.4 144.85,87.25 148.42,87.25 152.13,84.89 154.22,81.93 154.51,81.48 154.81,81.04 155.11,80.59 155.11,80.3 155.26,80.15 155.41,79.86 Z M 155.41,79.86" />
        <path id="bezier4" stroke="none" fill="rgb(74, 177, 154)" d="M 266.13,16.67 C 266.13,14.6 265.39,12.38 264.35,10.6 262.72,8.08 260.04,6.01 257.36,4.68 250.23,0.98 241.76,0.09 233.73,0.09 218.57,0.09 203.11,2.76 189.14,8.53 183.35,10.9 177.25,13.71 172.94,18.29 170.42,20.81 168.33,24.51 168.33,28.21 168.33,32.21 171.01,35.9 173.98,38.57 178.44,42.42 183.79,45.08 189.14,47.45 203.11,53.51 217.83,57.81 232.25,62.84 237.3,64.61 242.35,66.54 247.26,69.05 248.74,69.94 250.38,70.83 251.72,72.01 252.61,72.75 253.65,73.64 253.65,74.68 253.65,76.16 252.46,77.34 251.27,78.23 249.49,79.56 247.41,80.59 245.18,81.48 239.23,84 232.69,85.33 226.3,85.33 211.73,85.33 197.17,80.3 184.68,72.9 183.94,72.46 183.2,72.01 182.31,71.57 182.01,71.42 181.56,71.27 181.26,71.12 180.82,70.98 180.52,70.68 180.08,70.68 179.78,70.68 179.33,70.68 179.33,70.83 179.18,71.57 179.93,72.31 180.37,72.9 181.26,74.08 182.6,75.12 183.94,75.86 187.06,77.78 190.18,79.41 193.6,81.04 203.71,85.77 215,88.88 226.3,88.88 233.88,89.03 241.61,87.4 248.45,84.44 251.27,83.26 254.09,81.63 256.03,79.26 257.07,78.08 257.81,76.45 257.81,74.67 257.81,71.42 254.39,68.61 251.57,66.68 247.7,64.17 243.24,62.39 238.93,60.62 224.66,54.85 209.65,50.55 195.38,44.64 190.33,42.42 185.28,40.05 180.67,37.09 178.74,35.76 176.95,34.42 175.62,32.65 174.58,31.46 173.69,29.84 173.69,28.21 173.83,24.95 176.66,21.99 179.33,19.92 183.5,16.81 188.55,14.6 193.45,12.97 206.38,8.38 220.21,6.01 233.73,6.01 239.83,6.01 246.22,6.6 251.86,8.82 254.24,9.56 256.47,10.75 258.26,12.52 259.3,13.71 260.19,15.19 260.19,16.67 260.19,17.85 259.45,19.04 258.7,19.92 257.51,21.55 255.88,22.73 254.09,23.77 251.86,25.1 249.49,25.84 246.96,26.43 245.47,26.73 243.84,26.73 242.35,27.17 242.06,27.32 241.61,27.47 241.61,27.91 241.46,28.21 241.61,28.65 241.76,28.95 242.5,30.28 243.99,31.32 245.62,31.61 247.41,32.06 249.49,31.47 251.27,31.02 255.88,29.84 260.49,27.32 263.46,23.62 264.94,21.7 266.13,19.18 266.13,16.67 Z M 266.13,16.67" />
        <path id="bezier5" stroke="none" fill="rgb(74, 177, 154)" d="M 293.03,67.13 C 293.03,66.83 293.03,66.39 292.89,66.24 292.74,66.09 292.59,65.95 292.29,66.09 291.1,66.24 290.36,67.57 289.76,68.61 289.02,69.94 288.28,71.27 287.54,72.6 285.6,75.56 283.22,78.23 280.4,80.3 278.32,81.78 276.24,82.37 273.56,82.22 270.59,82.22 267.32,81.19 265.24,79.12 268.07,76.75 270.59,74.08 272.67,71.12 275.2,67.42 277.58,63.43 278.47,58.99 278.62,57.66 278.17,56.03 277.28,54.99 275.94,53.22 273.42,52.03 271.19,52.03 268.36,52.03 265.69,53.96 263.75,56.03 260.34,59.88 258.11,65.2 258.11,70.38 258.11,79.56 264.2,86.07 273.56,85.92 277.58,85.77 281.44,83.85 284.42,81.19 287.98,77.64 290.51,72.9 292.59,68.31 292.74,67.87 292.89,67.57 293.03,67.13 Z M 274.31,58.25 C 273.71,62.54 271.33,66.54 268.81,70.09 267.32,72.46 265.54,74.53 263.61,76.45 262.71,74.68 262.27,72.46 262.42,70.38 262.42,66.83 263.9,63.28 265.84,60.32 267.17,58.55 268.96,56.33 271.19,56.18 272.08,56.18 272.97,56.62 273.56,57.07 274.01,57.36 274.46,57.81 274.31,58.25 Z M 274.31,58.25" />
        <path id="bezier6" stroke="none" fill="rgb(74, 177, 154)" d="M 328.56,69.64 C 327.81,69.05 327.07,69.64 326.18,71.12 323.8,75.12 318.9,81.63 313.4,81.34 311.91,81.19 310.42,80.6 309.53,79.56 308.19,77.93 307.9,75.56 307.9,73.49 307.75,72.01 307.9,70.38 308.19,68.9 308.19,68.31 308.49,67.57 308.34,66.83 308.34,66.54 307.9,66.39 307.6,66.24 L 307.6,66.24 C 307.6,65.95 307.45,65.8 307.15,65.65 307.01,65.65 306.56,65.65 306.26,65.8 305.67,65.65 304.77,65.5 304.33,66.09 303.74,66.98 303.59,68.02 303.44,69.2 303.14,70.53 303.14,71.86 303.14,73.34 302.1,75.56 300.61,77.64 298.98,79.41 297.64,80.89 295.86,82.81 293.78,82.67 292.44,82.67 291.55,81.19 291.1,80 290.36,78.08 290.21,76.01 290.21,73.94 290.36,69.64 291.99,65.35 294.52,61.95 296.01,59.88 298.09,57.36 300.61,57.51 301.65,57.51 303.14,57.51 303.59,58.25 304.18,59.29 303.44,60.77 304.33,61.51 304.63,61.8 305.22,61.95 305.67,61.95 306.26,61.95 307.15,61.95 307.6,61.51 308.79,60.03 308.49,57.66 307.75,56.03 306.41,53.81 303.29,52.77 300.61,52.77 297.49,52.77 294.22,54.85 292.29,57.36 288.57,61.95 286.2,68.02 286.2,73.94 286.2,77.19 286.79,80.89 288.72,83.41 289.91,85.03 291.84,86.22 293.78,86.22 297.05,86.07 300.02,83.41 301.95,80.74 302.55,79.86 303.29,78.82 303.88,77.93 304.33,79.71 305.37,81.48 306.71,82.81 308.34,84.59 311.02,85.33 313.39,85.33 322.17,85.18 330.49,70.98 328.56,69.64 Z M 328.56,69.64" />
        <path id="bezier7" stroke="none" fill="rgb(74, 177, 154)" d="M 359.77,78.23 C 359.17,78.08 358.43,78.38 357.84,78.67 356.94,79.26 356.35,80.15 355.61,80.74 353.82,81.93 351.59,82.52 349.51,82.52 347.73,82.52 345.65,81.34 344.61,79.86 343.27,77.78 342.82,75.27 342.82,72.75 342.97,69.64 343.27,66.54 343.57,63.28 343.72,61.95 344.01,60.47 343.42,59.29 343.12,58.55 342.08,57.81 341.19,57.81 340.15,57.81 339.26,58.55 338.66,59.29 337.62,60.32 337.03,61.65 336.43,62.84 334.8,65.94 333.46,69.2 331.97,72.46 331.23,74.08 330.49,75.56 329.74,77.19 329.3,77.93 328.85,78.52 328.41,79.26 L 328.11,79.71 C 327.96,78.37 328.11,77.04 328.11,75.71 328.11,72.46 328.55,69.35 328.55,66.09 328.55,63.87 328.7,61.5 327.66,59.58 327.07,58.55 325.73,57.66 324.54,57.66 323.05,57.66 323.65,58.4 323.2,59.88 324.84,60.47 324.84,62.1 324.84,62.1 324.84,63.72 324.99,64.91 324.84,66.09 324.84,70.09 324.1,74.23 324.24,78.38 324.24,79.86 324.24,81.63 325.14,82.96 325.58,83.85 326.47,84.44 327.51,84.44 330.04,84.29 331.97,81.33 333.16,78.97 334.8,76.01 336.13,72.75 337.47,69.5 338.22,67.87 338.81,66.39 339.55,64.91 L 340,63.87 C 340,64.17 340,64.46 340,64.76 339.7,67.42 339.55,70.09 339.7,72.75 339.7,76.01 340.44,79.56 342.68,81.93 344.31,83.85 346.99,85.18 349.51,85.03 351.15,85.03 352.93,84.74 354.42,84.15 356.2,83.26 357.69,81.93 359.02,80.45 359.17,80.3 359.32,80.15 359.32,80 L 359.47,79.86 C 359.77,79.41 360.36,78.38 359.77,78.23 Z M 359.77,78.23" />
        <path id="bezier8" stroke="none" fill="rgb(74, 177, 154)" d="M 381.91,81.78 C 381.91,79.26 380.43,77.34 378.64,77.34 376.86,77.34 375.52,79.26 375.52,81.78 375.52,84.3 376.86,86.22 378.64,86.22 380.43,86.22 381.91,84.3 381.91,81.78 Z M 381.91,81.78" />
    </g>
</svg>
