<?xml version="1.0" encoding="UTF-8"?>
<!DOCTYPE svg PUBLIC "-//W3C//DTD SVG 1.1//EN" "http://www.w3.org/Graphics/SVG/1.1/DTD/svg11.dtd">
<svg version="1.1" xmlns="http://www.w3.org/2000/svg" xmlns:xlink="http://www.w3.org/1999/xlink" x="0px" y="0px"
	 preserveAspectRatio="xMidYMid meet" width="284px" height="284px" viewBox="0 0 284 284" enable-background="new 0 0 284 284" xml:space="preserve">

    <circle id="oval2" stroke="none" fill="rgb(243, 242, 241)" cx="141" cy="141" r="141" />
    <g id="group" clip-path="url(#oval)">
        <clipPath id="oval">
            <circle cx="141" cy="141" r="141" />
        </clipPath>
        <g id="page1">
            <g id="layer_1">
                <g id="layer_1_1_">
                    <path id="bezier2" stroke="none" fill="rgb(243, 197, 173)" d="M 106.18,234.3 C 117.24,238.44 119.41,259.93 111.02,282.31 102.64,304.69 86.87,319.48 75.82,315.34 64.76,311.2 62.59,289.7 70.98,267.33 79.36,244.95 95.13,230.16 106.18,234.3 Z M 106.18,234.3" />
                    <path id="bezier" stroke="none" fill="rgb(0, 0, 0)" d="M 85.45,313.56 L 85.45,330.66 198.76,330.66 198.76,313.56 85.45,313.56 Z M 85.45,313.56" />
                    <path id="bezier3" stroke="none" fill="rgb(26, 23, 24)" fill-opacity="0.3" d="M 69.5,287.42 C 67.82,286.31 67.76,281.9 69.27,277.24 69.1,277.62 68.94,278.01 68.79,278.41 66.85,283.49 66.76,288.59 68.59,289.8 70.43,291.01 73.47,287.87 75.41,282.79 75.56,282.38 75.7,281.98 75.83,281.58 73.9,285.96 71.18,288.53 69.5,287.42 L 69.5,287.42 Z M 69.5,287.42" />
                    <path id="bezier4" stroke="none" fill="rgb(243, 197, 173)" d="M 171.82,222.3 C 160.76,226.44 158.59,247.93 166.98,270.31 175.36,292.69 191.13,307.48 202.18,303.34 213.24,299.2 215.41,277.7 207.02,255.33 198.64,232.95 182.87,218.16 171.82,222.3 Z M 171.82,222.3" />
                    <path id="bezier5" stroke="none" fill="rgb(26, 23, 24)" fill-opacity="0.3" d="M 195.56,296.25 C 192.29,296.25 189.61,291.23 189.2,284.72 189.16,285.28 189.14,285.85 189.14,286.43 189.14,293.75 192.01,299.68 195.55,299.68 199.09,299.68 201.97,293.75 201.97,286.43 201.97,285.85 201.94,285.28 201.9,284.72 201.5,291.22 198.81,296.25 195.56,296.25 L 195.56,296.25 Z M 195.56,296.25" />
                    <path id="bezier6" stroke="none" fill="rgb(58, 164, 136)" d="M 209.45,248.39 L 189.89,220.62 174.13,227.86 172.73,223.29 109.82,223.29 108.74,227.25 94.32,220.62 74.76,248.39 99.75,259.87 84.38,315.7 201.01,315.7 183.99,260.09 209.45,248.39 Z M 209.45,248.39" />
                    <path id="bezier7" stroke="none" fill="rgb(255, 255, 255)" d="M 142.1,252.67 C 152.14,252.67 160.28,244.54 160.28,234.51 160.28,224.48 152.14,216.35 142.1,216.35 132.07,216.35 123.93,224.48 123.93,234.51 123.93,244.54 132.07,252.67 142.1,252.67 Z M 142.1,252.67" />
                    <path id="bezier8" stroke="none" fill="rgb(213, 166, 145)" d="M 142.07,249.4 C 150.32,249.4 157,243.16 157,235.47 157,227.78 150.32,221.55 142.07,221.55 133.82,221.55 127.14,227.78 127.14,235.47 127.14,243.16 133.82,249.4 142.07,249.4 Z M 142.07,249.4" />
                    <path id="bezier9" stroke="none" fill="rgb(243, 197, 173)" d="M 46.43,168.27 C 54.4,168.27 60.86,161.81 60.86,153.85 60.86,145.88 54.4,139.42 46.43,139.42 38.46,139.42 32,145.88 32,153.85 32,161.81 38.46,168.27 46.43,168.27 Z M 46.43,168.27" />
                    <path id="bezier10" stroke="none" fill="rgb(243, 197, 173)" d="M 234.57,168.27 C 242.54,168.27 249,161.81 249,153.85 249,145.88 242.54,139.42 234.57,139.42 226.6,139.42 220.14,145.88 220.14,153.85 220.14,161.81 226.6,168.27 234.57,168.27 Z M 234.57,168.27" />
                    <path id="bezier11" stroke="none" fill="rgb(243, 197, 173)" d="M 141.57,235.58 C 194.41,235.58 237.24,202.09 237.24,160.79 237.24,119.49 194.41,86.01 141.57,86.01 88.73,86.01 45.9,119.49 45.9,160.79 45.9,202.09 88.73,235.58 141.57,235.58 Z M 141.57,235.58" />
                    <path id="bezier12" stroke="none" fill="rgb(26, 23, 24)" fill-opacity="0.38" d="M 97.21,163.77 C 97.21,173.1 89.79,151.78 80.64,151.78 71.49,151.78 64.07,173.1 64.07,163.77 64.07,154.46 71.49,146.9 80.64,146.9 89.79,146.9 97.21,154.46 97.21,163.77 L 97.21,163.77 Z M 97.21,163.77" />
                    <path id="bezier13" stroke="none" fill="rgb(26, 23, 24)" fill-opacity="0.38" d="M 224.41,163.77 C 224.41,173.1 216.99,151.78 207.84,151.78 198.69,151.78 191.28,173.1 191.28,163.77 191.28,154.46 198.69,146.9 207.84,146.9 216.99,146.9 224.41,154.46 224.41,163.77 L 224.41,163.77 Z M 224.41,163.77" />
                    <path id="bezier14" stroke="none" fill="rgb(26, 23, 24)" fill-opacity="0.3" d="M 206.24,134.82 C 218.09,134.82 227.79,142.97 228.62,153.31 228.66,152.84 228.69,152.36 228.69,151.88 228.69,140.87 218.64,131.95 206.24,131.95 193.85,131.95 183.79,140.87 183.79,151.88 183.79,152.36 183.82,152.84 183.86,153.31 184.69,142.98 194.39,134.82 206.24,134.82 L 206.24,134.82 Z M 206.24,134.82" />
                    <path id="bezier15" stroke="none" fill="rgb(26, 23, 24)" fill-opacity="0.3" d="M 80.1,134.82 C 91.96,134.82 101.66,142.97 102.49,153.31 102.52,152.84 102.55,152.36 102.55,151.88 102.55,140.87 92.5,131.95 80.1,131.95 67.71,131.95 57.66,140.87 57.66,151.88 57.66,152.36 57.68,152.84 57.72,153.31 58.55,142.98 68.25,134.82 80.1,134.82 L 80.1,134.82 Z M 80.1,134.82" />
                    <path id="bezier16" stroke="none" fill="rgb(236, 160, 66)" d="M 237.1,105.24 C 237.19,104.21 237.24,103.17 237.24,102.13 237.24,88.79 229.69,76.51 217.03,66.75 215.5,65.57 222.21,51.79 220.54,50.69 219.12,49.76 209.33,61.48 207.81,60.6 207.08,60.18 206.33,59.76 205.58,59.36 202.8,57.85 205.96,41.44 202.9,40.13 200.23,38.99 191.37,52.94 188.5,51.96 174.62,47.26 158.61,44.57 141.55,44.57 89.69,44.57 47.48,69.38 45.9,100.34 L 237.1,100.34 237.1,105.24 237.1,105.24 237.1,105.24 Z M 237.1,105.24" />
                    <path id="bezier17" stroke="none" fill="rgb(236, 160, 66)" d="M 237.24,98.83 L 46.02,98.83 45.9,98.83 45.9,158.65 C 45.9,158.65 108.36,138.93 129.17,132.35 142.21,128.23 181.3,115.89 181.3,115.89 L 237.24,158.65 237.24,103.72 237.24,98.83 237.24,98.83 Z M 237.24,98.83" />
                    <path id="bezier18" stroke="none" fill="rgb(44, 39, 35)" d="M 141.03,317.84 L 141.03,331.73 142.1,331.73 142.1,317.84 141.03,317.84 Z M 141.03,317.84" />
                    <path id="bezier19" stroke="none" fill="rgb(26, 23, 24)" fill-opacity="0.3" d="M 142.1,171.47 C 144.69,171.47 146.85,173.31 147.34,175.75 147.41,175.4 147.45,175.05 147.45,174.68 147.45,171.73 145.06,169.34 142.1,169.34 139.15,169.34 136.76,171.73 136.76,174.68 136.76,175.05 136.8,175.4 136.87,175.75 137.36,173.31 139.52,171.47 142.1,171.47 L 142.1,171.47 Z M 142.1,171.47" />
                    <path id="bezier20" stroke="none" fill="rgb(246, 172, 44)" fill-opacity="0.5" d="M 203.57,196.05 C 205.64,196.05 207.31,194.37 207.31,192.31 207.31,190.24 205.64,188.57 203.57,188.57 201.5,188.57 199.83,190.24 199.83,192.31 199.83,194.37 201.5,196.05 203.57,196.05 Z M 203.57,196.05" />
                    <path id="bezier21" stroke="none" fill="rgb(246, 172, 44)" fill-opacity="0.5" d="M 209.98,200.32 C 210.87,200.32 211.59,199.6 211.59,198.72 211.59,197.83 210.87,197.12 209.98,197.12 209.1,197.12 208.38,197.83 208.38,198.72 208.38,199.6 209.1,200.32 209.98,200.32 Z M 209.98,200.32" />
                    <path id="bezier22" stroke="none" fill="rgb(246, 172, 44)" fill-opacity="0.5" d="M 195.55,200.32 C 196.73,200.32 197.69,199.36 197.69,198.18 197.69,197 196.73,196.05 195.55,196.05 194.37,196.05 193.41,197 193.41,198.18 193.41,199.36 194.37,200.32 195.55,200.32 Z M 195.55,200.32" />
                    <path id="bezier23" stroke="none" fill="rgb(246, 172, 44)" fill-opacity="0.5" d="M 200.36,199.25 C 200.66,199.25 200.9,199.01 200.9,198.72 200.9,198.42 200.66,198.18 200.36,198.18 200.07,198.18 199.83,198.42 199.83,198.72 199.83,199.01 200.07,199.25 200.36,199.25 Z M 200.36,199.25" />
                    <path id="bezier24" stroke="none" fill="rgb(246, 172, 44)" fill-opacity="0.5" d="M 85.98,196.05 C 88.05,196.05 89.72,194.37 89.72,192.31 89.72,190.24 88.05,188.57 85.98,188.57 83.92,188.57 82.24,190.24 82.24,192.31 82.24,194.37 83.92,196.05 85.98,196.05 Z M 85.98,196.05" />
                    <path id="bezier25" stroke="none" fill="rgb(246, 172, 44)" fill-opacity="0.5" d="M 92.4,200.32 C 93.28,200.32 94,199.6 94,198.72 94,197.83 93.28,197.12 92.4,197.12 91.51,197.12 90.79,197.83 90.79,198.72 90.79,199.6 91.51,200.32 92.4,200.32 Z M 92.4,200.32" />
                    <path id="bezier26" stroke="none" fill="rgb(246, 172, 44)" fill-opacity="0.5" d="M 76.9,200.32 C 78.08,200.32 79.03,199.36 79.03,198.18 79.03,197 78.08,196.05 76.9,196.05 75.72,196.05 74.76,197 74.76,198.18 74.76,199.36 75.72,200.32 76.9,200.32 Z M 76.9,200.32" />
                    <path id="bezier27" stroke="none" fill="rgb(246, 172, 44)" fill-opacity="0.5" d="M 81.71,199.25 C 82,199.25 82.24,199.01 82.24,198.72 82.24,198.42 82,198.18 81.71,198.18 81.41,198.18 81.17,198.42 81.17,198.72 81.17,199.01 81.41,199.25 81.71,199.25 Z M 81.71,199.25" />
                    <path id="bezier28" stroke="none" fill="rgb(7, 7, 6)" fill-opacity="0.05" d="M 75.64,182.16 C 67.28,182.16 59.75,185.71 54.45,191.39 63.54,207.37 79.54,220.38 99.46,228.1 102.75,223.36 104.69,217.6 104.69,211.38 104.69,195.24 91.68,182.16 75.64,182.16 L 75.64,182.16 Z M 75.64,182.16" />
                    <path id="bezier29" stroke="none" fill="rgb(7, 7, 6)" fill-opacity="0.05" d="M 207.5,182.16 C 215.86,182.16 223.39,185.71 228.69,191.39 219.6,207.37 203.6,220.38 183.68,228.1 180.39,223.36 178.45,217.6 178.45,211.38 178.45,195.24 191.45,182.16 207.5,182.16 L 207.5,182.16 Z M 207.5,182.16" />
                    <path id="bezier30" stroke="none" fill="rgb(44, 39, 35)" d="M 74.22,336 C 76.88,336 79.03,334.33 79.03,332.26 79.03,330.2 76.88,328.52 74.22,328.52 71.57,328.52 69.41,330.2 69.41,332.26 69.41,334.33 71.57,336 74.22,336 Z M 74.22,336" />
                    <path id="bezier31" stroke="none" fill="rgb(44, 39, 35)" d="M 81.71,336 C 84.36,336 86.52,334.33 86.52,332.26 86.52,330.2 84.36,328.52 81.71,328.52 79.05,328.52 76.9,330.2 76.9,332.26 76.9,334.33 79.05,336 81.71,336 Z M 81.71,336" />
                    <path id="bezier32" stroke="none" fill="rgb(44, 39, 35)" d="M 89.19,336 C 91.85,336 94,334.33 94,332.26 94,330.2 91.85,328.52 89.19,328.52 86.53,328.52 84.38,330.2 84.38,332.26 84.38,334.33 86.53,336 89.19,336 Z M 89.19,336" />
                    <path id="bezier33" stroke="none" fill="rgb(44, 39, 35)" d="M 97.74,336 C 100.4,336 102.55,334.33 102.55,332.26 102.55,330.2 100.4,328.52 97.74,328.52 95.08,328.52 92.93,330.2 92.93,332.26 92.93,334.33 95.08,336 97.74,336 Z M 97.74,336" />
                    <path id="bezier34" stroke="none" fill="rgb(44, 39, 35)" d="M 105.22,336 C 107.88,336 110.03,334.33 110.03,332.26 110.03,330.2 107.88,328.52 105.22,328.52 102.57,328.52 100.41,330.2 100.41,332.26 100.41,334.33 102.57,336 105.22,336 Z M 105.22,336" />
                    <path id="bezier35" stroke="none" fill="rgb(44, 39, 35)" d="M 112.71,336 C 115.36,336 117.52,334.33 117.52,332.26 117.52,330.2 115.36,328.52 112.71,328.52 110.05,328.52 107.9,330.2 107.9,332.26 107.9,334.33 110.05,336 112.71,336 Z M 112.71,336" />
                    <path id="bezier36" stroke="none" fill="rgb(44, 39, 35)" d="M 121.26,336 C 123.92,336 126.07,334.33 126.07,332.26 126.07,330.2 123.92,328.52 121.26,328.52 118.6,328.52 116.45,330.2 116.45,332.26 116.45,334.33 118.6,336 121.26,336 Z M 121.26,336" />
                    <path id="bezier37" stroke="none" fill="rgb(44, 39, 35)" d="M 128.74,336 C 131.4,336 133.55,334.33 133.55,332.26 133.55,330.2 131.4,328.52 128.74,328.52 126.08,328.52 123.93,330.2 123.93,332.26 123.93,334.33 126.08,336 128.74,336 Z M 128.74,336" />
                    <path id="bezier38" stroke="none" fill="rgb(44, 39, 35)" d="M 136.22,336 C 138.88,336 141.03,334.33 141.03,332.26 141.03,330.2 138.88,328.52 136.22,328.52 133.57,328.52 131.41,330.2 131.41,332.26 131.41,334.33 133.57,336 136.22,336 Z M 136.22,336" />
                    <path id="bezier39" stroke="none" fill="rgb(44, 39, 35)" d="M 146.91,336 C 149.57,336 151.72,334.33 151.72,332.26 151.72,330.2 149.57,328.52 146.91,328.52 144.26,328.52 142.1,330.2 142.1,332.26 142.1,334.33 144.26,336 146.91,336 Z M 146.91,336" />
                    <path id="bezier40" stroke="none" fill="rgb(44, 39, 35)" d="M 154.4,336 C 157.05,336 159.21,334.33 159.21,332.26 159.21,330.2 157.05,328.52 154.4,328.52 151.74,328.52 149.59,330.2 149.59,332.26 149.59,334.33 151.74,336 154.4,336 Z M 154.4,336" />
                    <path id="bezier41" stroke="none" fill="rgb(44, 39, 35)" d="M 161.88,336 C 164.54,336 166.69,334.33 166.69,332.26 166.69,330.2 164.54,328.52 161.88,328.52 159.22,328.52 157.07,330.2 157.07,332.26 157.07,334.33 159.22,336 161.88,336 Z M 161.88,336" />
                    <path id="bezier42" stroke="none" fill="rgb(44, 39, 35)" d="M 170.43,336 C 173.09,336 175.24,334.33 175.24,332.26 175.24,330.2 173.09,328.52 170.43,328.52 167.77,328.52 165.62,330.2 165.62,332.26 165.62,334.33 167.77,336 170.43,336 Z M 170.43,336" />
                    <path id="bezier43" stroke="none" fill="rgb(44, 39, 35)" d="M 177.91,336 C 180.57,336 182.72,334.33 182.72,332.26 182.72,330.2 180.57,328.52 177.91,328.52 175.26,328.52 173.1,330.2 173.1,332.26 173.1,334.33 175.26,336 177.91,336 Z M 177.91,336" />
                    <path id="bezier44" stroke="none" fill="rgb(44, 39, 35)" d="M 185.4,336 C 188.05,336 190.21,334.33 190.21,332.26 190.21,330.2 188.05,328.52 185.4,328.52 182.74,328.52 180.59,330.2 180.59,332.26 180.59,334.33 182.74,336 185.4,336 Z M 185.4,336" />
                    <path id="bezier45" stroke="none" fill="rgb(44, 39, 35)" d="M 193.95,336 C 196.6,336 198.76,334.33 198.76,332.26 198.76,330.2 196.6,328.52 193.95,328.52 191.29,328.52 189.14,330.2 189.14,332.26 189.14,334.33 191.29,336 193.95,336 Z M 193.95,336" />
                    <path id="bezier46" stroke="none" fill="rgb(44, 39, 35)" d="M 201.43,336 C 204.09,336 206.24,334.33 206.24,332.26 206.24,330.2 204.09,328.52 201.43,328.52 198.77,328.52 196.62,330.2 196.62,332.26 196.62,334.33 198.77,336 201.43,336 Z M 201.43,336" />
                    <path id="bezier47" stroke="none" fill="rgb(44, 39, 35)" d="M 208.91,336 C 211.57,336 213.72,334.33 213.72,332.26 213.72,330.2 211.57,328.52 208.91,328.52 206.26,328.52 204.1,330.2 204.1,332.26 204.1,334.33 206.26,336 208.91,336 Z M 208.91,336" />
                    <path id="bezier48" stroke="none" fill="rgb(26, 23, 24)" fill-opacity="0.05" d="M 142.1,180.02 C 166.31,180.02 185.93,177.87 185.93,175.21 185.93,172.56 166.31,170.41 142.1,170.41 117.9,170.41 98.28,172.56 98.28,175.21 98.28,177.87 117.9,180.02 142.1,180.02 Z M 142.1,180.02" />
                    <path id="bezier49" stroke="none" fill="rgb(255, 255, 255)" d="M 105.76,317.84 C 85.68,317.84 69.41,324.53 69.41,332.79 L 142.1,332.79 C 142.1,324.53 125.83,317.84 105.76,317.84 L 105.76,317.84 Z M 105.76,317.84" />
                    <path id="bezier50" stroke="none" fill="rgb(255, 255, 255)" d="M 178.45,317.84 C 158.38,317.84 142.1,324.53 142.1,332.79 L 214.79,332.79 C 214.79,324.53 198.52,317.84 178.45,317.84 L 178.45,317.84 Z M 178.45,317.84" />
                    <path id="bezier51" stroke="none" fill="rgb(241, 184, 156)" d="M 69.88,268.97 C 67.82,266.09 64.99,264.59 63.55,265.62 62.1,266.65 62.61,269.82 64.67,272.69 66.73,275.57 69.57,277.07 71.01,276.05 72.45,275.02 71.94,271.85 69.88,268.97 Z M 69.88,268.97" />
                </g>
                <path id="bezier52" stroke="rgb(164, 134, 119)" stroke-width="3" stroke-miterlimit="4" fill="none" d="M 173.1,199.81 C 173.1,206.57 159.72,212.07 143.17,212.07 126.62,212.07 113.24,206.56 113.24,199.81 113.24,193 126.62,187.5 143.17,187.5 159.72,187.5 173.1,193 173.1,199.81 L 173.1,199.81 Z M 173.1,199.81" />
                <path id="bezier53" stroke="none" fill="rgb(243, 197, 173)" d="M 110.03,184.29 L 110.03,199.25 175.24,199.25 175.24,184.29 110.03,184.29 Z M 110.03,184.29" />
            </g>
        </g>
    </g>
</svg>
